<?xml version="1.0" standalone="no"?>
<!DOCTYPE svg PUBLIC "-//W3C//DTD SVG 20010904//EN"
 "http://www.w3.org/TR/2001/REC-SVG-20010904/DTD/svg10.dtd">
<svg version="1.0" xmlns="http://www.w3.org/2000/svg"
 width="256.000000pt" height="256.000000pt" viewBox="0 0 256.000000 256.000000"
 preserveAspectRatio="xMidYMid meet">

<g transform="translate(0.000000,256.000000) scale(0.100000,-0.100000)"
fill="#000000" stroke="none">
<path d="M7 2553 c-4 -3 -7 -579 -7 -1280 l0 -1273 1275 0 1275 0 0 1280 0
1280 -1268 0 c-698 0 -1272 -3 -1275 -7z m1453 -513 c44 -28 -161 -742 -340
-1186 -61 -150 -127 -284 -139 -284 -15 0 91 413 165 645 129 399 280 835 289
835 5 0 17 -4 25 -10z m-610 -633 l0 -363 -67 4 c-38 2 -68 5 -68 6 -1 0 1
162 3 359 l4 357 64 0 64 0 0 -363z m237 133 c79 -48 84 -138 17 -346 -38
-118 -50 -144 -65 -144 -18 0 -19 10 -19 175 0 162 -2 177 -20 195 -27 27 -66
25 -95 -5 l-25 -24 0 53 c0 54 14 76 65 104 32 18 106 14 142 -8z m718 -19
c15 -6 9 -9 -26 -14 -108 -15 -219 -94 -240 -170 -5 -21 -9 -65 -8 -98 2 -59
2 -61 -43 -106 -25 -25 -50 -43 -56 -39 -6 3 -18 29 -27 57 -26 77 -17 201 17
260 32 54 73 93 113 107 35 12 240 14 270 3z m67 -402 c-7 -147 -12 -180 -30
-215 -24 -47 -71 -90 -119 -111 -39 -16 -197 -18 -242 -2 -30 11 -31 13 -31
66 0 53 1 55 23 49 12 -4 47 -12 78 -18 51 -10 61 -9 102 11 74 36 82 63 82
273 0 198 -7 174 90 276 l50 53 3 -104 c1 -57 -1 -182 -6 -278z m-162 122 c0
-78 0 -79 -30 -91 -31 -13 -95 -7 -105 10 -5 8 121 160 132 160 2 0 3 -35 3
-79z m-70 -121 c17 0 40 5 51 11 19 10 20 8 17 -22 -4 -47 -67 -91 -130 -91
-46 0 -108 24 -108 42 0 6 16 28 36 49 35 39 35 39 69 25 19 -8 48 -14 65 -14z"/>
</g>
</svg>
