<svg id="svg" version="1.1" xmlns="http://www.w3.org/2000/svg" xmlns:xlink="http://www.w3.org/1999/xlink" width="400" height="400" viewBox="0, 0, 400,400"><g id="svgg"><path id="path0" d="M0.000 200.000 L 0.000 400.000 200.000 400.000 L 400.000 400.000 400.000 200.000 L 400.000 0.000 200.000 0.000 L 0.000 0.000 0.000 200.000 M123.822 58.114 C 124.470 58.617,132.470 66.439,141.600 75.498 L 158.200 91.967 187.105 91.974 L 216.009 91.980 232.905 75.055 C 250.646 57.283,250.739 57.200,252.920 57.200 C 257.506 57.200,257.692 58.168,258.795 87.800 C 259.467 105.837,259.949 112.715,260.984 119.045 C 261.520 122.320,262.426 128.600,262.997 133.000 C 264.523 144.746,265.656 151.600,266.070 151.600 C 266.271 151.600,269.277 150.880,272.752 150.000 C 281.193 147.862,282.512 147.909,283.796 150.392 C 284.691 152.124,284.545 153.766,283.371 155.162 C 282.233 156.514,281.784 156.666,273.200 158.603 L 267.400 159.912 267.506 161.856 C 267.565 162.925,268.150 167.265,268.806 171.500 C 269.463 175.734,270.000 179.272,270.000 179.361 C 270.000 179.450,272.450 180.297,275.445 181.244 C 281.872 183.274,283.200 184.213,283.200 186.730 C 283.200 190.657,280.545 191.761,275.220 190.049 L 271.522 188.860 271.743 190.130 C 271.865 190.828,272.597 195.630,273.369 200.800 C 274.142 205.970,275.332 213.890,276.015 218.400 C 284.391 273.735,284.497 274.631,282.900 276.418 C 280.983 278.562,277.090 277.915,276.058 275.281 C 275.464 273.765,275.037 271.236,272.801 256.000 C 269.764 235.304,268.060 223.883,267.162 218.200 C 266.710 215.340,265.464 206.989,264.393 199.643 C 263.322 192.296,262.300 186.161,262.123 186.008 C 261.706 185.648,258.328 184.488,251.656 182.411 C 245.327 180.441,244.400 179.748,244.400 176.987 C 244.400 172.478,247.177 171.871,255.166 174.633 C 258.082 175.641,260.514 176.406,260.571 176.333 C 260.699 176.170,258.828 162.295,258.656 162.122 C 258.588 162.054,255.879 162.536,252.637 163.193 C 244.119 164.918,240.521 162.743,243.582 157.722 C 244.451 156.298,244.777 156.178,252.200 154.571 C 254.840 154.000,257.041 153.492,257.091 153.442 C 257.223 153.310,255.750 142.598,254.830 137.000 C 254.396 134.360,253.575 128.690,253.005 124.400 C 252.435 120.110,251.714 114.890,251.403 112.800 C 251.092 110.710,250.557 102.340,250.214 94.200 C 249.870 86.060,249.457 77.638,249.295 75.484 L 249.000 71.569 234.588 85.978 L 220.177 100.386 198.188 100.493 C 186.095 100.552,171.257 100.552,165.216 100.493 L 154.233 100.387 139.555 85.744 L 124.877 71.102 124.652 74.051 C 124.528 75.673,124.236 81.230,124.002 86.400 C 123.135 105.598,122.825 108.989,121.190 117.200 C 118.931 128.544,116.137 143.222,115.402 147.600 C 115.052 149.690,114.680 151.686,114.576 152.037 C 114.417 152.569,115.318 152.829,120.065 153.625 C 127.540 154.878,129.514 156.302,128.634 159.807 C 127.846 162.945,125.875 163.343,117.957 161.960 C 115.311 161.498,113.054 161.212,112.942 161.325 C 112.675 161.592,110.681 174.014,110.874 174.207 C 111.026 174.359,120.122 171.642,122.126 170.847 C 125.729 169.417,129.200 171.177,129.200 174.436 C 129.200 176.875,127.722 178.166,123.600 179.327 C 121.730 179.854,116.330 181.507,111.600 183.000 C 89.243 190.059,90.306 189.825,88.392 188.100 C 84.643 184.720,86.601 182.060,94.811 179.380 L 100.997 177.361 102.275 170.780 C 104.695 158.316,104.824 159.506,101.000 159.005 C 96.785 158.452,86.541 156.360,85.296 155.798 C 82.248 154.421,82.208 150.275,85.227 148.643 L 86.626 147.887 96.163 149.560 C 101.408 150.480,105.749 151.181,105.809 151.117 C 105.974 150.941,107.887 141.130,108.601 136.800 C 108.945 134.710,110.028 128.950,111.006 124.000 C 113.488 111.447,113.897 108.488,114.384 99.600 C 114.618 95.310,114.995 89.190,115.221 86.000 C 115.447 82.810,115.872 75.869,116.166 70.576 C 116.731 60.417,117.003 59.144,118.887 57.824 C 120.196 56.907,122.437 57.039,123.822 58.114 M314.431 113.169 C 316.827 115.565,316.185 117.406,311.073 122.800 C 306.655 127.462,303.961 131.488,303.023 134.833 C 301.613 139.856,298.224 141.504,295.306 138.586 C 291.959 135.239,296.364 125.390,305.327 116.179 C 310.093 111.281,311.934 110.672,314.431 113.169 M218.096 129.259 C 221.571 131.080,221.224 142.795,217.632 144.918 C 213.861 147.145,209.628 143.812,209.611 138.600 C 209.585 130.662,213.193 126.691,218.096 129.259 M154.313 129.424 C 157.843 131.897,157.723 142.492,154.137 144.986 C 148.806 148.692,143.974 140.685,146.736 132.720 C 147.868 129.453,151.870 127.713,154.313 129.424 M302.191 148.396 C 302.978 148.696,303.627 149.653,304.838 152.296 C 306.507 155.939,308.440 159.834,310.450 163.600 C 314.354 170.919,307.784 175.081,303.239 168.168 C 300.910 164.625,296.359 155.064,296.107 153.183 C 295.587 149.303,298.515 146.999,302.191 148.396 M194.227 150.986 C 198.133 152.618,197.464 155.364,191.741 161.191 L 187.215 165.800 187.208 169.239 L 187.200 172.678 189.537 174.907 C 193.808 178.981,196.607 179.349,201.385 176.467 C 204.479 174.602,204.661 174.564,206.627 175.386 C 209.554 176.608,209.784 180.359,207.073 182.650 C 200.728 188.016,191.328 187.637,184.438 181.740 C 182.913 180.435,182.758 180.385,182.138 181.005 C 175.120 188.023,165.050 188.517,158.689 182.155 C 155.022 178.488,159.221 172.398,163.246 175.546 C 168.280 179.483,171.918 179.266,176.624 174.747 L 179.200 172.273 179.200 169.137 L 179.200 166.001 174.871 161.700 C 168.150 155.024,167.521 152.637,172.008 150.846 C 173.698 150.172,192.563 150.290,194.227 150.986 M319.088 177.767 C 323.652 181.608,328.349 197.713,325.682 200.379 C 322.427 203.635,319.133 201.329,317.451 194.620 C 316.808 192.054,315.643 188.876,314.536 186.673 C 311.913 181.450,312.142 178.770,315.330 177.384 C 317.129 176.601,317.782 176.668,319.088 177.767 M118.581 196.166 C 121.540 197.403,121.663 195.035,116.011 245.600 C 112.190 279.790,112.567 278.243,108.090 278.116 C 104.090 278.002,103.840 276.269,105.589 260.750 C 107.954 239.769,110.568 216.223,111.607 206.544 C 112.566 197.614,112.970 196.480,115.400 195.888 C 116.786 195.550,117.191 195.585,118.581 196.166 M324.974 211.019 C 329.172 213.770,323.056 235.240,317.794 236.228 C 313.374 237.057,311.852 233.244,314.354 227.608 C 315.208 225.683,316.390 222.149,316.981 219.754 C 317.571 217.359,318.225 214.738,318.434 213.929 C 319.192 211.000,322.617 209.475,324.974 211.019 M185.726 214.847 C 188.546 216.289,188.724 218.957,186.285 223.210 C 183.253 228.496,179.355 235.343,178.206 237.400 C 177.592 238.500,176.327 240.750,175.394 242.400 C 169.885 252.142,168.102 255.290,166.673 257.800 C 165.796 259.340,164.237 262.130,163.208 264.000 C 155.034 278.860,154.489 279.600,151.725 279.600 C 146.580 279.600,146.428 276.297,151.193 268.000 C 152.014 266.570,153.730 263.510,155.007 261.200 C 156.283 258.890,158.776 254.480,160.547 251.400 C 162.317 248.320,164.510 244.450,165.420 242.800 C 166.329 241.150,168.920 236.560,171.176 232.600 C 173.432 228.640,176.476 223.256,177.939 220.635 C 181.216 214.766,182.990 213.447,185.726 214.847 M308.926 242.447 C 313.481 244.776,312.070 248.315,303.786 255.331 C 294.635 263.081,293.214 263.694,290.560 261.040 C 287.722 258.202,288.415 256.611,294.600 251.775 C 296.800 250.054,300.092 247.286,301.916 245.623 C 306.027 241.875,306.972 241.447,308.926 242.447 " stroke="none" fill="#1c1c1c" fill-rule="evenodd"></path><path id="path1" d="M118.725 58.373 C 116.849 59.849,116.955 58.849,115.207 91.600 C 114.294 108.721,114.379 107.892,112.587 117.200 C 109.836 131.487,108.703 137.570,107.558 144.189 C 106.911 147.922,106.252 151.107,106.091 151.267 C 105.807 151.549,97.578 150.278,91.600 149.028 C 85.829 147.821,83.775 148.529,83.325 151.881 C 82.965 154.570,84.387 155.700,89.211 156.558 C 91.295 156.928,94.800 157.570,97.000 157.984 C 99.200 158.398,101.765 158.856,102.700 159.003 C 103.841 159.182,104.400 159.471,104.400 159.881 C 104.400 160.817,102.433 172.268,101.768 175.200 L 101.179 177.800 97.889 178.766 C 90.064 181.065,89.433 181.305,88.332 182.406 C 86.562 184.176,86.958 187.397,89.063 188.356 C 90.723 189.112,92.256 188.867,98.531 186.839 C 106.858 184.149,116.459 181.128,122.200 179.393 C 127.859 177.682,128.800 176.987,128.800 174.512 C 128.800 170.229,126.173 169.855,116.989 172.829 C 113.543 173.944,110.646 174.779,110.551 174.684 C 110.296 174.430,112.465 161.462,112.831 161.049 C 113.140 160.700,115.849 161.081,121.481 162.266 C 126.210 163.261,128.400 162.105,128.400 158.616 C 128.400 155.913,127.504 155.378,120.976 154.185 C 113.466 152.813,114.025 153.065,114.436 151.237 C 114.626 150.392,115.423 146.060,116.208 141.611 C 116.992 137.162,117.994 131.785,118.434 129.661 C 122.454 110.259,122.791 107.503,123.848 85.400 C 124.226 77.480,124.600 70.920,124.679 70.823 C 124.757 70.725,131.532 77.340,139.733 85.523 L 154.645 100.400 186.749 100.400 C 209.388 100.400,219.110 100.270,219.726 99.958 C 220.207 99.715,227.028 93.108,234.884 85.276 C 242.741 77.444,249.253 71.120,249.356 71.223 C 249.459 71.325,249.739 75.997,249.978 81.605 C 251.224 110.796,251.042 108.724,254.373 131.800 C 256.088 143.680,257.365 153.541,257.212 153.714 C 257.059 153.886,254.252 154.545,250.976 155.178 C 244.137 156.500,243.200 157.087,243.200 160.053 C 243.200 164.011,245.317 164.590,253.230 162.793 C 256.154 162.129,258.670 161.724,258.821 161.893 C 259.126 162.235,260.980 176.360,260.747 176.575 C 260.666 176.649,258.180 175.920,255.223 174.955 C 247.392 172.399,244.400 172.950,244.400 176.947 C 244.400 179.484,245.385 180.081,254.398 183.004 C 258.906 184.466,262.627 185.694,262.666 185.733 C 262.705 185.772,263.115 188.683,263.576 192.202 C 264.038 195.721,264.853 201.210,265.387 204.400 C 265.922 207.590,266.829 213.620,267.403 217.800 C 267.976 221.980,268.878 228.010,269.406 231.200 C 269.934 234.390,270.830 240.420,271.397 244.600 C 271.964 248.780,272.768 254.180,273.184 256.600 C 273.599 259.020,274.324 263.790,274.795 267.200 C 276.063 276.394,276.546 277.320,280.043 277.272 C 283.753 277.220,284.261 275.583,283.023 267.669 C 281.873 260.311,281.002 254.330,280.394 249.600 C 280.153 247.730,279.258 241.700,278.406 236.200 C 274.345 209.996,271.277 188.856,271.503 188.630 C 271.593 188.541,273.181 188.992,275.032 189.634 C 279.838 191.299,282.224 190.748,282.963 187.805 C 283.690 184.909,282.401 183.853,275.238 181.472 C 272.355 180.513,269.922 179.655,269.831 179.565 C 269.741 179.474,269.111 175.440,268.431 170.600 C 267.751 165.760,267.100 161.346,266.985 160.792 C 266.777 159.787,266.807 159.776,274.419 158.006 C 282.571 156.110,283.679 155.572,284.122 153.290 C 284.409 151.817,283.344 149.695,281.958 148.978 C 280.678 148.316,280.695 148.314,271.275 150.659 C 268.127 151.443,265.504 152.020,265.447 151.942 C 265.179 151.573,259.924 113.241,259.588 109.200 C 259.378 106.670,258.930 98.300,258.592 90.600 C 257.090 56.337,257.325 57.600,252.471 57.600 L 250.604 57.600 233.429 74.800 L 216.255 92.000 187.027 91.984 L 157.800 91.968 141.401 75.684 C 121.290 55.714,121.704 56.030,118.725 58.373 M150.585 129.230 C 145.579 130.668,144.583 142.627,149.278 144.922 C 153.678 147.073,156.498 143.770,156.551 136.400 C 156.590 130.913,154.301 128.162,150.585 129.230 M212.876 129.610 C 209.465 131.690,208.931 141.556,212.086 144.211 C 214.562 146.295,218.254 145.243,219.464 142.109 C 222.485 134.276,218.287 126.311,212.876 129.610 M177.040 174.640 C 172.405 179.643,169.363 180.001,163.767 176.204 C 161.350 174.564,158.958 174.960,157.804 177.192 C 156.802 179.130,157.055 179.978,159.300 182.205 C 164.967 187.825,173.752 187.682,180.762 181.855 L 182.924 180.057 185.162 181.889 C 191.957 187.450,202.629 187.400,207.560 181.785 C 211.534 177.258,206.508 173.332,201.254 176.860 C 196.723 179.902,193.987 179.460,189.163 174.909 C 186.582 172.475,186.481 172.422,186.244 173.366 C 185.808 175.104,184.955 175.609,182.879 175.361 C 181.845 175.237,180.783 175.120,180.517 175.101 C 179.894 175.057,179.457 174.043,179.569 172.900 C 179.682 171.745,179.795 171.668,177.040 174.640 M114.283 196.806 C 112.808 197.966,112.539 199.195,111.608 209.000 C 111.148 213.840,110.240 222.210,109.589 227.600 C 108.938 232.990,107.861 242.710,107.196 249.200 C 106.530 255.690,105.725 262.890,105.406 265.200 C 103.926 275.908,104.349 277.728,108.300 277.674 C 112.418 277.617,111.988 279.716,116.633 237.000 C 117.398 229.960,118.372 221.320,118.796 217.800 C 120.381 204.647,120.828 199.325,120.434 198.289 C 119.579 196.039,116.272 195.242,114.283 196.806 M181.800 215.538 C 181.055 215.995,179.900 217.548,178.751 219.637 C 176.773 223.235,172.323 231.147,165.385 243.400 C 158.468 255.616,151.363 268.247,148.910 272.694 C 146.775 276.561,148.039 279.444,151.833 279.362 C 154.004 279.315,154.719 278.707,156.407 275.478 C 157.119 274.115,158.191 272.190,158.789 271.200 C 159.387 270.210,160.922 267.510,162.202 265.200 C 163.481 262.890,165.056 260.115,165.701 259.034 C 166.346 257.952,168.637 253.902,170.792 250.034 C 172.947 246.165,176.550 239.760,178.800 235.800 C 187.690 220.151,188.110 219.312,187.821 217.770 C 187.342 215.217,184.215 214.058,181.800 215.538 " stroke="none" fill="#2cb0d7" fill-rule="evenodd"></path><path id="path2" d="M309.782 112.382 C 308.547 112.883,301.283 120.668,299.502 123.400 C 293.360 132.822,292.791 139.600,298.141 139.600 C 300.424 139.600,302.799 137.109,302.800 134.713 C 302.802 132.557,306.648 127.005,312.056 121.353 C 313.554 119.788,314.971 118.001,315.206 117.384 C 316.427 114.173,313.049 111.058,309.782 112.382 M298.090 148.802 C 296.311 149.886,295.790 151.320,296.367 153.543 C 296.934 155.725,302.297 166.697,303.275 167.675 C 303.674 168.074,304.021 168.535,304.047 168.700 C 304.478 171.425,308.613 172.164,310.695 169.888 C 312.298 168.136,312.194 167.656,308.710 160.742 C 306.889 157.130,304.963 153.123,304.429 151.838 C 302.944 148.266,300.718 147.200,298.090 148.802 M170.787 151.951 C 168.437 154.301,168.881 155.412,174.360 160.891 L 179.120 165.651 179.304 169.726 C 179.497 174.020,179.729 175.045,180.517 175.101 C 180.783 175.120,181.845 175.237,182.879 175.361 C 184.952 175.609,185.808 175.103,186.242 173.375 C 186.376 172.842,186.601 172.478,186.743 172.566 C 186.884 172.654,186.941 171.196,186.870 169.326 L 186.739 165.925 191.570 160.999 C 196.980 155.480,197.431 154.444,195.435 152.122 L 194.470 151.000 183.222 150.882 L 171.974 150.764 170.787 151.951 M314.160 178.560 C 312.296 180.424,312.372 181.729,314.618 186.350 C 315.618 188.409,316.893 191.737,317.450 193.746 C 319.236 200.190,319.971 201.200,322.872 201.200 C 328.091 201.200,327.650 194.515,321.599 181.908 C 319.200 176.910,316.862 175.858,314.160 178.560 M320.120 211.401 C 319.228 212.026,318.653 213.468,318.206 216.200 C 317.788 218.754,316.425 223.088,314.703 227.339 C 312.138 233.674,314.143 237.609,318.988 235.749 C 321.508 234.782,327.367 217.088,326.367 213.466 C 325.684 210.992,322.301 209.874,320.120 211.401 M305.355 242.914 C 304.890 243.181,303.360 244.524,301.955 245.898 C 300.550 247.271,297.420 249.935,295.000 251.818 C 289.752 255.900,289.600 256.080,289.600 258.241 C 289.600 262.203,293.562 263.194,297.460 260.207 C 306.038 253.634,311.200 248.517,311.200 246.588 C 311.200 243.500,307.921 241.439,305.355 242.914 " stroke="none" fill="#10c073" fill-rule="evenodd"></path><path id="path3" d="M120.500 57.476 C 120.885 57.576,121.515 57.576,121.900 57.476 C 122.285 57.375,121.970 57.293,121.200 57.293 C 120.430 57.293,120.115 57.375,120.500 57.476 M251.905 57.483 C 252.402 57.579,253.122 57.575,253.505 57.475 C 253.887 57.375,253.480 57.296,252.600 57.301 C 251.720 57.305,251.407 57.387,251.905 57.483 M126.000 60.510 C 126.000 60.571,127.395 61.966,129.100 63.610 L 132.200 66.600 129.210 63.500 C 126.433 60.621,126.000 60.217,126.000 60.510 M257.293 62.800 C 257.293 63.570,257.375 63.885,257.476 63.500 C 257.576 63.115,257.576 62.485,257.476 62.100 C 257.375 61.715,257.293 62.030,257.293 62.800 M116.501 64.200 C 116.505 65.080,116.587 65.393,116.683 64.895 C 116.779 64.398,116.775 63.678,116.675 63.295 C 116.575 62.913,116.496 63.320,116.501 64.200 M257.742 70.200 C 257.741 72.180,257.808 73.040,257.892 72.112 C 257.976 71.184,257.977 69.564,257.895 68.512 C 257.812 67.460,257.743 68.220,257.742 70.200 M116.101 72.200 C 116.105 73.080,116.187 73.393,116.283 72.895 C 116.379 72.398,116.375 71.678,116.275 71.295 C 116.175 70.913,116.096 71.320,116.101 72.200 M124.449 70.900 C 124.549 70.955,131.194 77.480,139.216 85.400 L 153.800 99.800 139.402 85.300 C 131.483 77.325,124.838 70.800,124.635 70.800 C 124.433 70.800,124.349 70.845,124.449 70.900 M249.309 72.800 C 249.309 73.790,249.387 74.195,249.482 73.700 C 249.578 73.205,249.578 72.395,249.482 71.900 C 249.387 71.405,249.309 71.810,249.309 72.800 M246.175 74.100 L 245.000 75.400 246.300 74.225 C 247.015 73.579,247.600 72.994,247.600 72.925 C 247.600 72.616,247.270 72.888,246.175 74.100 M258.131 78.200 C 258.133 79.740,258.205 80.321,258.292 79.491 C 258.379 78.661,258.377 77.401,258.289 76.691 C 258.200 75.981,258.129 76.660,258.131 78.200 M249.748 80.800 C 249.748 83.110,249.814 84.055,249.895 82.900 C 249.976 81.745,249.976 79.855,249.895 78.700 C 249.814 77.545,249.748 78.490,249.748 80.800 M115.693 79.200 C 115.693 79.970,115.775 80.285,115.876 79.900 C 115.976 79.515,115.976 78.885,115.876 78.500 C 115.775 78.115,115.693 78.430,115.693 79.200 M124.109 80.400 C 124.109 81.390,124.187 81.795,124.282 81.300 C 124.378 80.805,124.378 79.995,124.282 79.500 C 124.187 79.005,124.109 79.410,124.109 80.400 M258.540 86.800 C 258.540 88.670,258.609 89.435,258.693 88.500 C 258.777 87.565,258.777 86.035,258.693 85.100 C 258.609 84.165,258.540 84.930,258.540 86.800 M115.301 86.200 C 115.305 87.080,115.387 87.393,115.483 86.895 C 115.579 86.398,115.575 85.678,115.475 85.295 C 115.375 84.913,115.296 85.320,115.301 86.200 M233.775 86.500 L 232.600 87.800 233.900 86.625 C 234.615 85.979,235.200 85.394,235.200 85.325 C 235.200 85.016,234.870 85.288,233.775 86.500 M123.701 88.200 C 123.705 89.080,123.787 89.393,123.883 88.895 C 123.979 88.398,123.975 87.678,123.875 87.295 C 123.775 86.913,123.696 87.320,123.701 88.200 M250.140 90.400 C 250.140 92.270,250.209 93.035,250.293 92.100 C 250.377 91.165,250.377 89.635,250.293 88.700 C 250.209 87.765,250.140 88.530,250.140 90.400 M155.183 89.300 C 156.841 91.066,157.200 91.384,157.200 91.083 C 157.200 91.019,156.345 90.164,155.300 89.183 L 153.400 87.400 155.183 89.300 M230.175 90.100 L 229.000 91.400 230.300 90.225 C 231.015 89.579,231.600 88.994,231.600 88.925 C 231.600 88.616,231.270 88.888,230.175 90.100 M114.914 93.800 C 114.917 94.900,114.995 95.303,115.087 94.695 C 115.179 94.086,115.177 93.186,115.082 92.695 C 114.987 92.203,114.911 92.700,114.914 93.800 M225.978 94.300 L 224.600 95.800 226.100 94.422 C 227.496 93.138,227.784 92.800,227.478 92.800 C 227.412 92.800,226.737 93.475,225.978 94.300 M123.301 95.800 C 123.305 96.680,123.387 96.993,123.483 96.495 C 123.579 95.998,123.575 95.278,123.475 94.895 C 123.375 94.513,123.296 94.920,123.301 95.800 M258.924 97.000 C 258.926 98.320,259.001 98.812,259.090 98.093 C 259.179 97.374,259.177 96.294,259.086 95.693 C 258.995 95.092,258.922 95.680,258.924 97.000 M250.537 98.600 C 250.539 100.360,250.609 101.030,250.693 100.089 C 250.778 99.149,250.777 97.709,250.691 96.889 C 250.605 96.070,250.536 96.840,250.537 98.600 M222.378 97.900 L 221.000 99.400 222.500 98.022 C 223.896 96.738,224.184 96.400,223.878 96.400 C 223.812 96.400,223.137 97.075,222.378 97.900 M114.520 101.200 C 114.520 102.410,114.595 102.905,114.687 102.300 C 114.778 101.695,114.778 100.705,114.687 100.100 C 114.595 99.495,114.520 99.990,114.520 101.200 M122.909 103.200 C 122.909 104.190,122.987 104.595,123.082 104.100 C 123.178 103.605,123.178 102.795,123.082 102.300 C 122.987 101.805,122.909 102.210,122.909 103.200 M259.314 105.400 C 259.317 106.500,259.395 106.903,259.487 106.295 C 259.579 105.686,259.577 104.786,259.482 104.295 C 259.387 103.803,259.311 104.300,259.314 105.400 M114.109 106.400 C 114.109 107.390,114.187 107.795,114.282 107.300 C 114.378 106.805,114.378 105.995,114.282 105.500 C 114.187 105.005,114.109 105.410,114.109 106.400 M250.909 107.200 C 250.909 108.190,250.987 108.595,251.082 108.100 C 251.178 107.605,251.178 106.795,251.082 106.300 C 250.987 105.805,250.909 106.210,250.909 107.200 M122.501 108.200 C 122.505 109.080,122.587 109.393,122.683 108.895 C 122.779 108.398,122.775 107.678,122.675 107.295 C 122.575 106.913,122.496 107.320,122.501 108.200 M148.370 130.300 L 147.400 131.400 148.600 130.400 C 149.260 129.850,149.875 129.355,149.967 129.300 C 150.058 129.245,149.955 129.200,149.736 129.200 C 149.518 129.200,148.903 129.695,148.370 130.300 M210.093 134.400 C 210.093 135.170,210.175 135.485,210.276 135.100 C 210.376 134.715,210.376 134.085,210.276 133.700 C 210.175 133.315,210.093 133.630,210.093 134.400 M146.114 139.000 C 146.117 140.100,146.195 140.503,146.287 139.895 C 146.379 139.286,146.377 138.386,146.282 137.895 C 146.187 137.403,146.111 137.900,146.114 139.000 M214.500 145.476 C 214.885 145.576,215.515 145.576,215.900 145.476 C 216.285 145.375,215.970 145.293,215.200 145.293 C 214.430 145.293,214.115 145.375,214.500 145.476 M128.493 158.800 C 128.493 159.570,128.575 159.885,128.676 159.500 C 128.776 159.115,128.776 158.485,128.676 158.100 C 128.575 157.715,128.493 158.030,128.493 158.800 M258.075 161.848 C 258.447 161.958,258.842 162.353,258.952 162.725 C 259.099 163.214,259.132 163.181,259.072 162.605 C 259.025 162.138,258.662 161.775,258.195 161.728 C 257.619 161.668,257.586 161.701,258.075 161.848 M124.305 170.683 C 124.802 170.779,125.522 170.775,125.905 170.675 C 126.287 170.575,125.880 170.496,125.000 170.501 C 124.120 170.505,123.807 170.587,124.305 170.683 M189.000 174.800 C 190.083 175.900,191.060 176.800,191.170 176.800 C 191.280 176.800,190.483 175.900,189.400 174.800 C 188.317 173.700,187.340 172.800,187.230 172.800 C 187.120 172.800,187.917 173.700,189.000 174.800 M247.905 173.083 C 248.402 173.179,249.122 173.175,249.505 173.075 C 249.887 172.975,249.480 172.896,248.600 172.901 C 247.720 172.905,247.407 172.987,247.905 173.083 M110.432 173.900 C 110.410 174.505,110.630 174.798,111.100 174.794 C 111.532 174.790,111.631 174.675,111.360 174.494 C 111.118 174.332,110.817 173.930,110.692 173.600 C 110.539 173.199,110.453 173.299,110.432 173.900 M128.893 174.400 C 128.893 175.170,128.975 175.485,129.076 175.100 C 129.176 174.715,129.176 174.085,129.076 173.700 C 128.975 173.315,128.893 173.630,128.893 174.400 M158.800 182.200 C 159.546 182.970,160.247 183.600,160.357 183.600 C 160.467 183.600,159.946 182.970,159.200 182.200 C 158.454 181.430,157.753 180.800,157.643 180.800 C 157.533 180.800,158.054 181.430,158.800 182.200 M172.600 186.000 C 171.511 186.277,171.493 186.307,172.400 186.325 C 172.950 186.335,173.760 186.189,174.200 186.000 C 175.186 185.576,174.266 185.576,172.600 186.000 M194.300 186.282 C 194.795 186.378,195.605 186.378,196.100 186.282 C 196.595 186.187,196.190 186.109,195.200 186.109 C 194.210 186.109,193.805 186.187,194.300 186.282 M197.700 186.276 C 198.085 186.376,198.715 186.376,199.100 186.276 C 199.485 186.175,199.170 186.093,198.400 186.093 C 197.630 186.093,197.315 186.175,197.700 186.276 M169.300 186.676 C 169.685 186.776,170.315 186.776,170.700 186.676 C 171.085 186.575,170.770 186.493,170.000 186.493 C 169.230 186.493,168.915 186.575,169.300 186.676 M110.493 218.000 C 110.493 218.770,110.575 219.085,110.676 218.700 C 110.776 218.315,110.776 217.685,110.676 217.300 C 110.575 216.915,110.493 217.230,110.493 218.000 M110.101 221.400 C 110.105 222.280,110.187 222.593,110.283 222.095 C 110.379 221.598,110.375 220.878,110.275 220.495 C 110.175 220.113,110.096 220.520,110.101 221.400 M118.093 224.000 C 118.093 224.770,118.175 225.085,118.276 224.700 C 118.376 224.315,118.376 223.685,118.276 223.300 C 118.175 222.915,118.093 223.230,118.093 224.000 M109.693 224.800 C 109.693 225.570,109.775 225.885,109.876 225.500 C 109.976 225.115,109.976 224.485,109.876 224.100 C 109.775 223.715,109.693 224.030,109.693 224.800 M117.693 227.600 C 117.693 228.370,117.775 228.685,117.876 228.300 C 117.976 227.915,117.976 227.285,117.876 226.900 C 117.775 226.515,117.693 226.830,117.693 227.600 M109.293 228.000 C 109.293 228.770,109.375 229.085,109.476 228.700 C 109.576 228.315,109.576 227.685,109.476 227.300 C 109.375 226.915,109.293 227.230,109.293 228.000 M117.293 231.200 C 117.293 231.970,117.375 232.285,117.476 231.900 C 117.576 231.515,117.576 230.885,117.476 230.500 C 117.375 230.115,117.293 230.430,117.293 231.200 M161.800 249.200 C 161.459 249.860,161.269 250.400,161.379 250.400 C 161.489 250.400,161.859 249.860,162.200 249.200 C 162.541 248.540,162.731 248.000,162.621 248.000 C 162.511 248.000,162.141 248.540,161.800 249.200 M114.493 256.400 C 114.493 257.170,114.575 257.485,114.676 257.100 C 114.776 256.715,114.776 256.085,114.676 255.700 C 114.575 255.315,114.493 255.630,114.493 256.400 M106.101 257.400 C 106.105 258.280,106.187 258.593,106.283 258.095 C 106.379 257.598,106.375 256.878,106.275 256.495 C 106.175 256.113,106.096 256.520,106.101 257.400 M289.293 258.000 C 289.293 258.770,289.375 259.085,289.476 258.700 C 289.576 258.315,289.576 257.685,289.476 257.300 C 289.375 256.915,289.293 257.230,289.293 258.000 M114.093 260.000 C 114.093 260.770,114.175 261.085,114.276 260.700 C 114.376 260.315,114.376 259.685,114.276 259.300 C 114.175 258.915,114.093 259.230,114.093 260.000 M105.701 261.000 C 105.705 261.880,105.787 262.193,105.883 261.695 C 105.979 261.198,105.975 260.478,105.875 260.095 C 105.775 259.713,105.696 260.120,105.701 261.000 M113.693 263.200 C 113.693 263.970,113.775 264.285,113.876 263.900 C 113.976 263.515,113.976 262.885,113.876 262.500 C 113.775 262.115,113.693 262.430,113.693 263.200 M274.093 264.000 C 274.093 264.770,274.175 265.085,274.276 264.700 C 274.376 264.315,274.376 263.685,274.276 263.300 C 274.175 262.915,274.093 263.230,274.093 264.000 " stroke="none" fill="#206472" fill-rule="evenodd"></path><path id="path4" d="M245.978 61.900 L 244.600 63.400 246.100 62.022 C 247.496 60.738,247.784 60.400,247.478 60.400 C 247.412 60.400,246.737 61.075,245.978 61.900 M257.693 65.600 C 257.693 66.370,257.775 66.685,257.876 66.300 C 257.976 65.915,257.976 65.285,257.876 64.900 C 257.775 64.515,257.693 64.830,257.693 65.600 M241.775 66.100 L 240.600 67.400 241.900 66.225 C 242.615 65.579,243.200 64.994,243.200 64.925 C 243.200 64.616,242.870 64.888,241.775 66.100 M237.578 70.300 L 236.200 71.800 237.700 70.422 C 239.096 69.138,239.384 68.800,239.078 68.800 C 239.012 68.800,238.337 69.475,237.578 70.300 M140.600 74.800 C 143.674 77.880,146.279 80.400,146.389 80.400 C 146.499 80.400,144.074 77.880,141.000 74.800 C 137.926 71.720,135.321 69.200,135.211 69.200 C 135.101 69.200,137.526 71.720,140.600 74.800 M124.501 72.600 C 124.505 73.480,124.587 73.793,124.683 73.295 C 124.779 72.798,124.775 72.078,124.675 71.695 C 124.575 71.313,124.496 71.720,124.501 72.600 M233.775 74.100 L 232.600 75.400 233.900 74.225 C 234.615 73.579,235.200 72.994,235.200 72.925 C 235.200 72.616,234.870 72.888,233.775 74.100 M229.775 78.100 L 228.600 79.400 229.900 78.225 C 230.615 77.579,231.200 76.994,231.200 76.925 C 231.200 76.616,230.870 76.888,229.775 78.100 M225.775 82.100 L 224.600 83.400 225.900 82.225 C 226.615 81.579,227.200 80.994,227.200 80.925 C 227.200 80.616,226.870 80.888,225.775 82.100 M149.000 83.200 C 149.859 84.080,150.652 84.800,150.762 84.800 C 150.872 84.800,150.259 84.080,149.400 83.200 C 148.541 82.320,147.748 81.600,147.638 81.600 C 147.528 81.600,148.141 82.320,149.000 83.200 M221.978 85.900 L 220.600 87.400 222.100 86.022 C 223.496 84.738,223.784 84.400,223.478 84.400 C 223.412 84.400,222.737 85.075,221.978 85.900 M151.200 85.325 C 151.200 85.394,151.785 85.979,152.500 86.625 L 153.800 87.800 152.625 86.500 C 151.530 85.288,151.200 85.016,151.200 85.325 M114.914 90.200 C 114.917 91.300,114.995 91.703,115.087 91.095 C 115.179 90.486,115.177 89.586,115.082 89.095 C 114.987 88.603,114.911 89.100,114.914 90.200 M250.093 94.800 C 250.093 95.570,250.175 95.885,250.276 95.500 C 250.376 95.115,250.376 94.485,250.276 94.100 C 250.175 93.715,250.093 94.030,250.093 94.800 M114.501 97.800 C 114.505 98.680,114.587 98.993,114.683 98.495 C 114.779 97.998,114.775 97.278,114.675 96.895 C 114.575 96.513,114.496 96.920,114.501 97.800 M250.514 103.400 C 250.517 104.500,250.595 104.903,250.687 104.295 C 250.779 103.686,250.777 102.786,250.682 102.295 C 250.587 101.803,250.511 102.300,250.514 103.400 M305.791 115.700 L 302.600 119.000 305.900 115.809 C 307.715 114.055,309.200 112.570,309.200 112.509 C 309.200 112.218,308.754 112.635,305.791 115.700 M311.789 121.700 L 309.000 124.600 311.900 121.811 C 314.594 119.220,314.983 118.800,314.689 118.800 C 314.628 118.800,313.323 120.105,311.789 121.700 M305.693 128.700 C 304.657 130.196,304.321 130.800,304.523 130.800 C 304.617 130.800,305.170 130.080,305.753 129.200 C 306.936 127.412,306.884 126.979,305.693 128.700 M294.109 135.600 C 294.109 136.590,294.187 136.995,294.282 136.500 C 294.378 136.005,294.378 135.195,294.282 134.700 C 294.187 134.205,294.109 134.610,294.109 135.600 M209.731 138.200 C 209.733 139.740,209.805 140.321,209.892 139.491 C 209.979 138.661,209.977 137.401,209.889 136.691 C 209.800 135.981,209.729 136.660,209.731 138.200 M177.676 150.699 C 180.468 150.767,185.148 150.768,188.076 150.699 C 191.004 150.631,188.720 150.575,183.000 150.574 C 177.280 150.574,174.884 150.630,177.676 150.699 M193.978 158.700 L 192.600 160.200 194.100 158.822 C 194.925 158.063,195.600 157.388,195.600 157.322 C 195.600 157.016,195.262 157.304,193.978 158.700 M173.600 160.525 C 173.600 160.594,174.185 161.179,174.900 161.825 L 176.200 163.000 175.025 161.700 C 173.930 160.488,173.600 160.216,173.600 160.525 M189.471 163.128 L 186.764 165.857 186.901 169.028 L 187.039 172.200 187.120 169.010 L 187.200 165.820 189.889 163.110 C 191.368 161.620,192.489 160.400,192.379 160.400 C 192.269 160.400,190.960 161.628,189.471 163.128 M176.778 174.700 L 175.400 176.200 176.900 174.822 C 177.725 174.063,178.400 173.388,178.400 173.322 C 178.400 173.016,178.062 173.304,176.778 174.700 M182.800 180.125 C 182.800 180.194,183.385 180.779,184.100 181.425 L 185.400 182.600 184.225 181.300 C 183.130 180.088,182.800 179.816,182.800 180.125 M321.400 210.603 C 322.314 210.921,324.729 211.009,324.548 210.716 C 324.441 210.542,323.598 210.414,322.676 210.432 C 321.754 210.449,321.180 210.526,321.400 210.603 M300.800 246.600 C 299.828 247.590,299.123 248.400,299.233 248.400 C 299.343 248.400,300.228 247.590,301.200 246.600 C 302.172 245.610,302.877 244.800,302.767 244.800 C 302.657 244.800,301.772 245.610,300.800 246.600 M308.400 251.000 C 307.428 251.990,306.723 252.800,306.833 252.800 C 306.943 252.800,307.828 251.990,308.800 251.000 C 309.772 250.010,310.477 249.200,310.367 249.200 C 310.257 249.200,309.372 250.010,308.400 251.000 M291.376 261.770 C 291.804 262.117,292.794 262.377,293.576 262.350 L 295.000 262.300 293.400 262.036 C 292.520 261.891,291.530 261.630,291.200 261.456 C 290.870 261.283,290.949 261.424,291.376 261.770 " stroke="none" fill="#165f3d" fill-rule="evenodd"></path></g></svg>